<svg width="24" height="24" viewBox="0 0 24 24" fill="none" xmlns="http://www.w3.org/2000/svg">
<path d="M12.5 6.85718C11.8257 6.85718 11.1666 7.0457 10.606 7.39889C10.0454 7.75209 9.60844 8.25409 9.35041 8.84143C9.09238 9.42877 9.02487 10.0751 9.15641 10.6986C9.28795 11.3221 9.61264 11.8948 10.0894 12.3444C10.5662 12.7939 11.1736 13.1 11.8349 13.2241C12.4962 13.3481 13.1817 13.2844 13.8046 13.0411C14.4275 12.7979 14.96 12.3859 15.3346 11.8573C15.7092 11.3287 15.9091 10.7072 15.9091 10.0715C15.9091 9.21901 15.5499 8.40143 14.9106 7.79863C14.2713 7.19583 13.4041 6.85718 12.5 6.85718ZM12.5 12.0001C12.0954 12.0001 11.7 11.887 11.3636 11.6751C11.0272 11.4631 10.7651 11.1619 10.6102 10.8095C10.4554 10.4571 10.4149 10.0694 10.4938 9.69525C10.5728 9.32114 10.7676 8.9775 11.0536 8.70778C11.3397 8.43806 11.7042 8.25438 12.101 8.17997C12.4977 8.10555 12.909 8.14374 13.2828 8.28971C13.6565 8.43568 13.976 8.68288 14.2007 9.00003C14.4255 9.31719 14.5455 9.69006 14.5455 10.0715C14.5455 10.583 14.33 11.0735 13.9464 11.4352C13.5628 11.7969 13.0425 12.0001 12.5 12.0001ZM12.5 3C10.5116 3.00213 8.60522 3.74784 7.19919 5.07354C5.79316 6.39925 5.00226 8.19667 5 10.0715C5 12.5947 6.23665 15.2691 8.57955 17.806C9.63229 18.9523 10.8171 19.9846 12.1122 20.8837C12.2269 20.9594 12.3634 21 12.5034 21C12.6434 21 12.78 20.9594 12.8946 20.8837C14.1873 19.9842 15.3698 18.9519 16.4205 17.806C18.7599 15.2691 20 12.5947 20 10.0715C19.9977 8.19667 19.2068 6.39925 17.8008 5.07354C16.3948 3.74784 14.4884 3.00213 12.5 3ZM12.5 19.5537C11.0912 18.5091 6.36364 14.672 6.36364 10.0715C6.36364 8.53702 7.01014 7.06538 8.16094 5.98034C9.31173 4.8953 10.8725 4.28573 12.5 4.28573C14.1275 4.28573 15.6883 4.8953 16.8391 5.98034C17.9899 7.06538 18.6364 8.53702 18.6364 10.0715C18.6364 14.6704 13.9088 18.5091 12.5 19.5537Z" fill="#BF2228"/>
</svg>
