<svg width="24" height="24" viewBox="0 0 24 24" fill="none" xmlns="http://www.w3.org/2000/svg">
<path d="M20.3462 6H4.65385C4.48044 6 4.31413 6.06321 4.19151 6.17574C4.06889 6.28826 4 6.44087 4 6.6V16.8C4 17.1183 4.13777 17.4235 4.38301 17.6485C4.62825 17.8736 4.96087 18 5.30769 18H19.6923C20.0391 18 20.3717 17.8736 20.617 17.6485C20.8622 17.4235 21 17.1183 21 16.8V6.6C21 6.44087 20.9311 6.28826 20.8085 6.17574C20.6859 6.06321 20.5196 6 20.3462 6ZM18.665 7.2L12.5 12.3862L6.33505 7.2H18.665ZM19.6923 16.8H5.30769V7.96425L12.0578 13.6425C12.1785 13.7441 12.3363 13.8005 12.5 13.8005C12.6637 13.8005 12.8215 13.7441 12.9422 13.6425L19.6923 7.96425V16.8Z" fill="#BF2228"/>
</svg>
