<svg width="24" height="24" viewBox="0 0 24 24" fill="none" xmlns="http://www.w3.org/2000/svg">
<path d="M5.83411 8.5H4.28337C3.86466 8.5 3.454 8.61513 3.09631 8.83281V8.83281C2.41552 9.24713 2 9.98642 2 10.7834V14.7166C2 15.5136 2.41552 16.2529 3.09631 16.6672V16.6672C3.454 16.8849 3.86466 17 4.28337 17H4.69393C5.39698 17 6.04409 17.3834 6.38183 18V18V18C6.71958 18.6166 7.36668 19 8.06974 19H16.538C17.0175 19 17.4458 18.7004 17.6103 18.25V18.25C17.7747 17.7996 18.2031 17.5 18.6826 17.5H19.3812C19.8276 17.5 20.2579 17.3331 20.5875 17.0322V17.0322C20.9589 16.6932 21.1705 16.2135 21.1705 15.7106V10.2894C21.1705 9.7865 20.9589 9.30685 20.5875 8.96782V8.96782C20.2579 8.66686 19.8276 8.5 19.3812 8.5H17.8842M5.83411 8.5V5.78935C5.83411 5.2865 6.0457 4.80685 6.41709 4.46782V4.46782C6.74678 4.16686 7.17706 4 7.62346 4H15.1455H17.8842M5.83411 8.5H17.8842M17.8842 4V6V8.5M17.8842 4L16.1812 5.94321C15.8711 6.29707 15.4234 6.5 14.9529 6.5H14.9021C14.7016 6.5 14.5033 6.4569 14.3209 6.37362V6.37362C13.8222 6.14602 13.5023 5.64832 13.5023 5.10018V4.5" stroke="#C52428"/>
<path d="M4.19141 13.5H5.83459M18.9801 13.5H17.8846M17.8846 13.5V18M17.8846 13.5H5.83459M5.83459 13.5V17.5" stroke="#C52428"/>
<path d="M8.02441 15.5H15.6926" stroke="#C52428" stroke-linecap="round"/>
<path d="M8.02441 17H15.6926" stroke="#C52428" stroke-linecap="round"/>
</svg>
