<svg width="44" height="35" viewBox="0 0 44 35" fill="none" xmlns="http://www.w3.org/2000/svg">
<path fill-rule="evenodd" clip-rule="evenodd" d="M36.3381 26.9229H24.2227C23.1888 26.9229 22.2452 27.3133 21.5304 27.9541C20.8155 27.3133 19.8719 26.9229 18.838 26.9229H6.72266V2.69214H18.838C19.5798 2.69214 20.1842 3.29522 20.1842 4.03829C20.1842 4.78272 20.7873 5.38445 21.5304 5.38445C22.2734 5.38445 22.8765 4.78272 22.8765 4.03829C22.8765 3.29522 23.4809 2.69214 24.2227 2.69214H36.3381V26.9229ZM41.7308 1.34615H39.0385C39.0385 0.601731 38.4354 0 37.6923 0H24.2308C23.1969 0 22.2533 0.390385 21.5385 1.03115C20.8237 0.390385 19.88 0 18.8462 0H5.38462C4.64154 0 4.03846 0.601731 4.03846 1.34615H1.34615C0.603077 1.34615 0 1.94788 0 2.69231V33.6538C0 34.3983 0.603077 35 1.34615 35H41.7308C42.4739 35 43.0769 34.3983 43.0769 33.6538V2.69231C43.0769 1.94788 42.4739 1.34615 41.7308 1.34615Z" fill="#00187D"/>
<path fill-rule="evenodd" clip-rule="evenodd" d="M21.5317 8.07617C20.7886 8.07617 20.1855 8.6779 20.1855 9.42233V21.5377C20.1855 22.2821 20.7886 22.8839 21.5317 22.8839C22.2748 22.8839 22.8779 22.2821 22.8779 21.5377V9.42233C22.8779 8.6779 22.2748 8.07617 21.5317 8.07617Z" fill="#00187D"/>
<path fill-rule="evenodd" clip-rule="evenodd" d="M16.1565 13.4619H10.7719C10.0289 13.4619 9.42578 14.0636 9.42578 14.8081C9.42578 15.5525 10.0289 16.1542 10.7719 16.1542H16.1565C16.8996 16.1542 17.5027 15.5525 17.5027 14.8081C17.5027 14.0636 16.8996 13.4619 16.1565 13.4619Z" fill="#00187D"/>
<path fill-rule="evenodd" clip-rule="evenodd" d="M16.1565 8.07666H10.7719C10.0289 8.07666 9.42578 8.67839 9.42578 9.42281C9.42578 10.1672 10.0289 10.769 10.7719 10.769H16.1565C16.8996 10.769 17.5027 10.1672 17.5027 9.42281C17.5027 8.67839 16.8996 8.07666 16.1565 8.07666Z" fill="#00187D"/>
<path fill-rule="evenodd" clip-rule="evenodd" d="M16.1565 18.8462H10.7719C10.0289 18.8462 9.42578 19.4479 9.42578 20.1923C9.42578 20.9368 10.0289 21.5385 10.7719 21.5385H16.1565C16.8996 21.5385 17.5027 20.9368 17.5027 20.1923C17.5027 19.4479 16.8996 18.8462 16.1565 18.8462Z" fill="#00187D"/>
<path fill-rule="evenodd" clip-rule="evenodd" d="M26.9204 16.1542H32.305C33.0481 16.1542 33.6511 15.5525 33.6511 14.8081C33.6511 14.0636 33.0481 13.4619 32.305 13.4619H26.9204C26.1773 13.4619 25.5742 14.0636 25.5742 14.8081C25.5742 15.5525 26.1773 16.1542 26.9204 16.1542Z" fill="#00187D"/>
<path fill-rule="evenodd" clip-rule="evenodd" d="M26.9204 10.769H32.305C33.0481 10.769 33.6511 10.1672 33.6511 9.42281C33.6511 8.67839 33.0481 8.07666 32.305 8.07666H26.9204C26.1773 8.07666 25.5742 8.67839 25.5742 9.42281C25.5742 10.1672 26.1773 10.769 26.9204 10.769Z" fill="#00187D"/>
<path fill-rule="evenodd" clip-rule="evenodd" d="M26.9204 21.5385H32.305C33.0481 21.5385 33.6511 20.9368 33.6511 20.1923C33.6511 19.4479 33.0481 18.8462 32.305 18.8462H26.9204C26.1773 18.8462 25.5742 19.4479 25.5742 20.1923C25.5742 20.9368 26.1773 21.5385 26.9204 21.5385Z" fill="#00187D"/>
</svg>
