<svg width="24" height="24" viewBox="0 0 24 24" fill="none" xmlns="http://www.w3.org/2000/svg">
<path d="M19.2 3H4.8C3.81 3 3 3.765 3 4.7V20L6.6 16.6H19.2C20.19 16.6 21 15.835 21 14.9V4.7C21 3.765 20.19 3 19.2 3ZM19.2 14.9H5.88L4.8 15.92V4.7H19.2V14.9ZM12.18 5.975C11.37 5.975 10.74 6.145 10.29 6.4C9.75 6.74 9.48 7.25 9.57 7.845H11.37C11.37 7.59 11.46 7.42 11.64 7.335C11.82 7.25 12 7.165 12.27 7.165C12.54 7.165 12.81 7.25 12.99 7.42C13.17 7.59 13.26 7.76 13.26 8.015C13.26 8.27 13.17 8.44 13.08 8.61C12.9 8.78 12.72 8.95 12.54 9.035C12.09 9.29 11.73 9.545 11.55 9.715C11.19 9.97 11.1 10.225 11.1 10.65H12.9C12.9 10.395 12.99 10.225 12.99 10.055C13.08 9.885 13.26 9.8 13.44 9.63C13.89 9.46 14.16 9.205 14.43 8.865C14.7 8.525 14.79 8.185 14.79 7.845C14.79 7.25 14.52 6.74 14.07 6.4C13.71 6.145 12.99 5.975 12.18 5.975ZM11.1 11.5V13.2H12.9V11.5H11.1Z" fill="#BF2228"/>
</svg>
