<svg width="24" height="24" viewBox="0 0 24 24" fill="none" xmlns="http://www.w3.org/2000/svg">
<path d="M6 22H19" stroke="#BF2228" stroke-width="1.5" stroke-linecap="round"/>
<path d="M12.5 5.85718C11.8257 5.85718 11.1666 6.0457 10.606 6.39889C10.0454 6.75209 9.60844 7.25409 9.35041 7.84143C9.09238 8.42877 9.02487 9.07506 9.15641 9.69858C9.28795 10.3221 9.61264 10.8948 10.0894 11.3444C10.5662 11.7939 11.1736 12.1 11.8349 12.2241C12.4962 12.3481 13.1817 12.2844 13.8046 12.0411C14.4275 11.7979 14.96 11.3859 15.3346 10.8573C15.7092 10.3287 15.9091 9.70723 15.9091 9.0715C15.9091 8.21901 15.5499 7.40143 14.9106 6.79863C14.2713 6.19583 13.4041 5.85718 12.5 5.85718ZM12.5 11.0001C12.0954 11.0001 11.7 10.887 11.3636 10.6751C11.0272 10.4631 10.7651 10.1619 10.6102 9.80954C10.4554 9.45714 10.4149 9.06936 10.4938 8.69525C10.5728 8.32114 10.7676 7.9775 11.0536 7.70778C11.3397 7.43806 11.7042 7.25438 12.101 7.17997C12.4977 7.10555 12.909 7.14374 13.2828 7.28971C13.6565 7.43568 13.976 7.68288 14.2007 8.00003C14.4255 8.31719 14.5455 8.69006 14.5455 9.0715C14.5455 9.58299 14.33 10.0735 13.9464 10.4352C13.5628 10.7969 13.0425 11.0001 12.5 11.0001ZM12.5 2C10.5116 2.00213 8.60522 2.74784 7.19919 4.07354C5.79316 5.39925 5.00226 7.19667 5 9.0715C5 11.5947 6.23665 14.2691 8.57955 16.806C9.63229 17.9523 10.8171 18.9846 12.1122 19.8837C12.2269 19.9594 12.3634 20 12.5034 20C12.6434 20 12.78 19.9594 12.8946 19.8837C14.1873 18.9842 15.3698 17.9519 16.4205 16.806C18.7599 14.2691 20 11.5947 20 9.0715C19.9977 7.19667 19.2068 5.39925 17.8008 4.07354C16.3948 2.74784 14.4884 2.00213 12.5 2ZM12.5 18.5537C11.0912 17.5091 6.36364 13.672 6.36364 9.0715C6.36364 7.53702 7.01014 6.06538 8.16094 4.98034C9.31173 3.8953 10.8725 3.28573 12.5 3.28573C14.1275 3.28573 15.6883 3.8953 16.8391 4.98034C17.9899 6.06538 18.6364 7.53702 18.6364 9.0715C18.6364 13.6704 13.9088 17.5091 12.5 18.5537Z" fill="#BF2228"/>
</svg>
