<svg width="24" height="24" viewBox="0 0 24 24" fill="none" xmlns="http://www.w3.org/2000/svg">
<path d="M6.87581 10.1269L6.59419 10.3909L6.77833 10.7302C8.11075 13.1851 10.2533 15.191 12.8603 16.4346L13.1684 16.5816L13.4175 16.3481L15.3731 14.5148C15.4824 14.4123 15.6406 14.3763 15.7937 14.4205C16.8361 14.7429 17.9513 14.9167 19.1111 14.9167C19.2243 14.9167 19.3269 14.9591 19.3977 15.0255C19.4674 15.0909 19.5 15.1724 19.5 15.25V18.1667C19.5 18.2443 19.4674 18.3258 19.3977 18.3912C19.3269 18.4575 19.2243 18.5 19.1111 18.5C15.226 18.5 11.5059 17.0528 8.76791 14.4859C6.031 11.9201 4.5 8.44716 4.5 4.83333C4.5 4.75572 4.53259 4.67422 4.60232 4.60885C4.67314 4.54245 4.77571 4.5 4.88889 4.5H8C8.11318 4.5 8.21575 4.54245 8.28657 4.60885C8.3563 4.67422 8.38889 4.75572 8.38889 4.83333C8.38889 5.93069 8.57596 6.98531 8.9224 7.97004C8.95736 8.07744 8.93531 8.19612 8.83136 8.29356L6.87581 10.1269Z" stroke="#BF2228"/>
</svg>
