<?xml version="1.0" encoding="UTF-8"?>
<svg xmlns="http://www.w3.org/2000/svg" width="32" height="32" viewBox="0 0 32 32" fill="none">
  <rect width="32" height="32" rx="5" fill="white" fill-opacity="0.12"></rect>
  <path d="M19.945 14.9072L17.7363 15.5692" stroke="white" stroke-linecap="round" stroke-linejoin="round"></path>
  <path d="M20.5563 17.1494L18.3477 17.7921" stroke="white" stroke-linecap="round" stroke-linejoin="round"></path>
  <path fill-rule="evenodd" clip-rule="evenodd" d="M24.0002 20H21.3335L19.3335 12.6667L19.3221 12.6507C19.2155 12.66 19.1088 12.6667 19.0001 12.6667C16.9748 12.6667 15.3335 11.0253 15.3335 9.00001C15.3335 8.44467 15.4601 7.92067 15.6815 7.44934L14.6668 6L9.54879 9.58267C8.67945 10.1907 8.43679 11.372 8.99479 12.274L16.6668 24.6667H26.0002V22C26.0002 20.8954 25.1048 20 24.0002 20V20Z" stroke="white" stroke-linecap="round" stroke-linejoin="round"></path>
  <path d="M10 24H13.3333" stroke="white" stroke-linecap="round" stroke-linejoin="round"></path>
  <path d="M8 21.333H11.3333" stroke="white" stroke-linecap="round" stroke-linejoin="round"></path>
  <path d="M6 18.667H9.33334" stroke="white" stroke-linecap="round" stroke-linejoin="round"></path>
</svg>
