<svg width="36" height="35" viewBox="0 0 36 35" fill="none" xmlns="http://www.w3.org/2000/svg">
<circle cx="18.0442" cy="17.3481" r="17.3481" fill="#BF2228"/>
<path d="M18.0447 19.95C19.4819 19.95 20.6469 18.785 20.6469 17.3478C20.6469 15.9107 19.4819 14.7456 18.0447 14.7456C16.6076 14.7456 15.4425 15.9107 15.4425 17.3478C15.4425 18.785 16.6076 19.95 18.0447 19.95Z" fill="#E9E3F2"/>
<path d="M21.2964 9.5415H14.7909C12.2804 9.5415 10.2377 11.5849 10.2377 14.096V20.6015C10.2377 23.112 12.2811 25.1548 14.7922 25.1548H21.2977C23.8082 25.1548 25.8509 23.1114 25.8509 20.6002V14.0947C25.8509 11.5842 23.8075 9.5415 21.2964 9.5415ZM18.0443 21.2514C15.8916 21.2514 14.141 19.5008 14.141 17.3481C14.141 15.1955 15.8916 13.4448 18.0443 13.4448C20.197 13.4448 21.9476 15.1955 21.9476 17.3481C21.9476 19.5008 20.197 21.2514 18.0443 21.2514ZM22.5982 13.4448C22.2391 13.4448 21.9476 13.1534 21.9476 12.7943C21.9476 12.4352 22.2391 12.1437 22.5982 12.1437C22.9573 12.1437 23.2487 12.4352 23.2487 12.7943C23.2487 13.1534 22.9573 13.4448 22.5982 13.4448Z" fill="#E9E3F2"/>
</svg>
