<svg width="35" height="35" viewBox="0 0 35 35" fill="none" xmlns="http://www.w3.org/2000/svg">
<circle cx="17.4366" cy="17.3481" r="17.3481" fill="#BF2228"/>
<path d="M13.5456 14.8219H10.232V24.5259H13.5456V14.8219Z" fill="#E9E3F2"/>
<path d="M12.9885 10.2933C12.6727 10.1021 12.3016 10 11.9219 10C11.6686 10 11.4178 10.0454 11.1839 10.1337C10.95 10.222 10.7376 10.3514 10.559 10.5144C10.3804 10.6775 10.2391 10.8709 10.1431 11.0837C10.0472 11.2965 9.99858 11.5244 10 11.7543C10.0022 12.0989 10.1168 12.4351 10.3293 12.7207C10.5418 13.0062 10.8427 13.2282 11.1941 13.3587C11.5454 13.4892 11.9315 13.5223 12.3036 13.4539C12.6757 13.3854 13.0171 13.2185 13.2848 12.9742C13.5525 12.7298 13.7344 12.419 13.8077 12.0809C13.881 11.7429 13.8423 11.3926 13.6965 11.0745C13.5507 10.7563 13.3044 10.4845 12.9885 10.2933Z" fill="#E9E3F2"/>
<path d="M18.8646 14.8214H15.6725L15.6615 24.5455H18.9751V19.7436C18.9751 18.4805 19.2402 17.2574 20.9633 17.2574C22.6864 17.2574 22.6864 18.711 22.6864 19.8338V24.5254H26V19.2023C26 16.5858 25.3262 14.5808 22.0126 14.5808C21.381 14.5584 20.7546 14.692 20.2002 14.9675C19.6458 15.2429 19.1842 15.6498 18.8646 16.1447V14.8214Z" fill="#E9E3F2"/>
</svg>
