<svg width="35" height="35" viewBox="0 0 35 35" fill="none" xmlns="http://www.w3.org/2000/svg">
<circle cx="17.3481" cy="17.3481" r="17.3481" fill="#BF2228"/>
<path d="M25.8442 14.0557C25.7256 13.2005 25.4885 12.5948 25.1327 12.2385C24.7058 11.7871 24.0891 11.5258 23.2827 11.4545L16.9144 11.2764C14.3528 11.2764 12.2301 11.3358 10.5461 11.4545C9.73966 11.5258 9.12299 11.7871 8.69607 12.2385C8.53004 12.4047 8.38773 12.6423 8.26914 12.9511C8.15055 13.2362 8.06754 13.4856 8.0201 13.6994L7.98453 14.0557C7.86594 15.0297 7.80664 16.0037 7.80664 16.9776V18.3673L7.98453 21.3249C8.10312 22.1563 8.3403 22.7621 8.69607 23.1421C8.83838 23.2847 8.98068 23.4035 9.12299 23.4985C9.28902 23.5935 9.45505 23.6648 9.62107 23.7123C9.7871 23.7598 9.92941 23.7954 10.048 23.8192C10.1666 23.8429 10.297 23.8667 10.4393 23.8904C10.6054 23.9142 10.7002 23.9261 10.724 23.9261L16.9144 24.1042C19.4759 24.1042 21.5987 24.0448 23.2827 23.9261C24.0654 23.8548 24.682 23.5935 25.1327 23.1421C25.2987 22.9759 25.441 22.7383 25.5596 22.4295C25.6782 22.1207 25.7612 21.8594 25.8086 21.6456L25.8442 21.3249C25.9628 20.3509 26.0221 19.3651 26.0221 18.3673V16.9776L25.8442 14.0557ZM19.3692 17.8328L15.0644 20.0777V14.9466L19.974 17.5121L19.3692 17.8328Z" fill="#E9E3F2"/>
</svg>
