<svg width="25" height="25" viewBox="0 0 25 25" fill="none" xmlns="http://www.w3.org/2000/svg">
<path d="M20.2192 4.09277H4.21924C3.68881 4.09277 3.1801 4.30349 2.80502 4.67856C2.42995 5.05363 2.21924 5.56234 2.21924 6.09277V18.0928C2.21924 18.6232 2.42995 19.1319 2.80502 19.507C3.1801 19.8821 3.68881 20.0928 4.21924 20.0928H20.2192C20.7497 20.0928 21.2584 19.8821 21.6335 19.507C22.0085 19.1319 22.2192 18.6232 22.2192 18.0928V6.09277C22.2192 5.56234 22.0085 5.05363 21.6335 4.67856C21.2584 4.30349 20.7497 4.09277 20.2192 4.09277ZM20.2192 8.79277L12.2192 14.1268L4.21924 8.79277V6.38977L12.2192 11.7228L20.2192 6.38977V8.79277Z" fill="#7D7D7D"/>
</svg>
