<svg width="25" height="25" viewBox="0 0 25 25" fill="none" xmlns="http://www.w3.org/2000/svg">
<path fill-rule="evenodd" clip-rule="evenodd" d="M20.2945 4.71279C19.2798 3.69135 18.0724 2.88143 16.7424 2.32994C15.4124 1.77846 13.9862 1.49638 12.5463 1.50004C6.50886 1.50004 1.59395 6.41372 1.59151 12.4536C1.59151 14.384 2.09545 16.2679 3.0533 17.9298L1.5 23.6049L7.30687 22.0809C8.91311 22.9553 10.7126 23.4138 12.5415 23.4146H12.5463C18.5826 23.4146 23.4975 18.5009 23.5 12.461C23.5041 11.0217 23.223 9.59596 22.6728 8.26604C22.1226 6.93612 21.3143 5.72843 20.2945 4.71279ZM12.5463 21.566H12.5427C10.9119 21.5662 9.31118 21.1274 7.90842 20.2958L7.57653 20.0981L4.13072 21.0023L5.04952 17.6431L4.83355 17.299C3.92181 15.8475 3.43916 14.1677 3.44132 12.4536C3.44376 7.4338 7.52772 3.34984 12.55 3.34984C13.7461 3.34718 14.9308 3.58177 16.0357 4.04004C17.1405 4.4983 18.1434 5.17114 18.9865 6.0196C19.8341 6.86402 20.5059 7.86806 20.9631 8.97367C21.4203 10.0793 21.6538 11.2646 21.6502 12.461C21.6477 17.4808 17.5638 21.566 12.5463 21.566ZM17.5406 14.7464C17.266 14.6085 15.9214 13.9472 15.67 13.8556C15.4199 13.7641 15.2381 13.719 15.055 13.9923C14.872 14.2656 14.3473 14.8818 14.1875 15.0648C14.0277 15.2479 13.8678 15.2698 13.5945 15.1332C13.3212 14.9965 12.439 14.7073 11.3933 13.7751C10.5794 13.0491 10.0303 12.1535 9.87048 11.8789C9.71063 11.6044 9.85339 11.4568 9.99127 11.3201C10.1145 11.1981 10.2646 11.0004 10.4013 10.8406C10.5379 10.6807 10.5831 10.5672 10.6746 10.3842C10.7661 10.2012 10.7209 10.0413 10.6514 9.90468C10.5831 9.7668 10.0352 8.41971 9.80703 7.87185C9.58617 7.34107 9.36044 7.41184 9.19205 7.40452C9.01766 7.39738 8.84313 7.39413 8.66859 7.39475C8.5298 7.39829 8.39324 7.43046 8.26747 7.48926C8.1417 7.54805 8.02943 7.63219 7.9377 7.73641C7.68634 8.01095 6.97986 8.67229 6.97986 10.0194C6.97986 11.3665 7.96088 12.6684 8.09755 12.8514C8.23421 13.0345 10.0279 15.7982 12.7733 16.9842C13.4273 17.2661 13.9374 17.4344 14.3339 17.5613C14.9892 17.77 15.5858 17.7395 16.058 17.6699C16.5839 17.5919 17.6772 17.0086 17.9054 16.3692C18.1336 15.7298 18.1336 15.182 18.0652 15.0673C17.9969 14.9526 17.8127 14.883 17.5406 14.7464Z" fill="#24CD60"/>
</svg>
