<svg width="25" height="25" viewBox="0 0 25 25" fill="none" xmlns="http://www.w3.org/2000/svg">
<path fill-rule="evenodd" clip-rule="evenodd" d="M1 5C1 2.79086 2.79086 1 5 1H20C22.2091 1 24 2.79086 24 5V20C24 22.2091 22.2091 24 20 24H5C2.79086 24 1 22.2091 1 20V5ZM5.85151 4.45898H4.63867L5.32495 5.45898L10.7781 13.405L4.63867 20.541H6.03125L11.396 14.3054L15.6445 20.4961H19.1485H20.3613L19.6751 19.4961L14.0198 11.2556L19.8672 4.45898H18.4746L13.4019 10.3552L9.35547 4.45898H5.85151ZM12.7272 11.1394L8.82891 5.45898H6.53778L11.4527 12.6208L12.7272 11.1394ZM12.0707 13.5212L16.1711 19.4961H18.4622L13.3451 12.0398L12.0707 13.5212Z" fill="black"/>
</svg>
