<?xml version="1.0" encoding="UTF-8"?>
<svg xmlns="http://www.w3.org/2000/svg" width="338" height="338" viewBox="0 0 338 338" fill="none">
  <path d="M226.098 251.823L227.342 252.76L226.216 254.375L226.842 255.518L233.064 261.264L225.354 256.353L220.754 255.954L220.193 254.659L221.072 253.841L223.651 253.78L226.098 251.823ZM166.451 60.9886L166.809 63.0875L164.781 64.9871L168.854 64.3956L170.277 66.5791L174.533 68.8843L179.522 68.5699L179.413 66.0553L181.103 65.9978L181.37 63.7466L182.303 63.8413L182.601 63.7433L183.06 65.0954L184.331 64.7573L184.216 61.4854L186.204 59.978L188.594 51.653H189.739L187.934 48.2934L189.979 46.1031L192.312 46.8635L192.788 43.9568L195.154 44.5584L202.252 42.2668L202.573 45.9847L204.909 46.0456L203.219 45.1195L204.361 43.2876L207.924 42.7941L212.811 46.2958L217.381 46.6812L219.358 42.3411L220.964 41.2596V39.4818L223.644 39.1641L225.861 41.6516L228.41 39.8096L228.038 37.9403L232.192 36.5715L232.074 35.3886L233.379 34.9254L232.865 34.192L231.482 35.1858L232.256 31.2954L229.502 30.0751L232.466 28.9226L238.307 29.6256L239.013 32.0965L240.737 33.32L245.56 31.2649L245.82 34.2123L247.064 33.9622L246.665 35.4492L248.528 34.6381L249.704 36.149L251.918 34.5436L248.44 31.8023L250.231 30.0853L251.634 31.2515L252.753 30.0007L255.531 30.0514L259.587 28.2228L261.118 26.08L259.966 24.39L261.656 23.626L261.581 21.7502L263.413 21.2905L263.988 19.6985L265.634 19.8844L265.455 18.9076L263.129 18.4411L263.346 17.3426L267.462 16.8931L271.978 20.1988L276.254 20.3104L278.748 25.2451L280.722 26.3537V23.3725L282.514 31.7618L280.009 39.2823L277.596 59.2716L272.252 76.8476L257.38 99.5139L254.801 106.467L252.631 105.182L249.298 108.332L248.139 104.952L250.167 104.276L249.187 103.448L247.612 104.395L246.148 102.052L244.255 103.894L247.24 104.692L246.101 106.676L247.622 107.115L248.653 109.194L248.132 110.12L246.354 108.457L245.053 110.641L247.5 112.172L250.015 110.928L250.143 112.956L251.762 112.074L252.776 113.859L250.41 127.521L254.842 139.178L255.737 160.296L252.834 159.729L251.85 160.78L249.038 159.681L249.782 162.115L247.493 161.642L248.761 164.684L253.246 166.357L253.483 169.328L255.551 169.345L257.082 198.119L254.7 199.292H249.63L230.11 196.976L225.148 200.096L221.552 206.565L221.521 209.469L223.648 212.477L217.513 218.338L215.694 222.654L208.711 230.766L205.463 236.36L203.476 243.428L205.723 247.528L212.507 253.392L219.443 254.436L214.163 255.639L206.589 254.946L202.114 255.825L194.16 258.472L193.66 259.486L190.351 259.361L189.499 260.395L190.317 261.291L185.991 262.754L176.841 263.829L165.826 272.279L163.622 276.551L163 282.669L164.623 282.392L166.989 283.93L163.666 284.19L160.144 289.308L159.688 293.198L161.996 292.782L161.543 297.852L157.974 302.121L157.126 304.301L158.082 304.839L143.711 311.599L140.584 315.513L131.235 317.815L129.883 321.08L117.039 318.626L105.047 308.824L106.439 307.448L108.501 308.026L107.149 304.372L111.229 301.1L109.975 298.025L113.311 297.582L114.274 295.584L108.275 284.518L109.434 284.66L111.516 282.406L113.064 277.782L110.972 274.564L109.647 274.655V272.925L107.024 269.335L109.752 267.983L110.502 265.107L113.544 262.085L112.716 260.081L114.365 258.438V253.892L115.312 251.864L116.796 251.837L118.05 246.118L120.473 245.026L121.44 242.485L118.942 240.835L118.415 237.022L117.536 238.79L116.417 237.137L113.713 238.692L110.485 236.519L108.079 236.417L110.157 230.333L111.171 229.995L111.256 226.764L112.577 226.284L111.225 224.841L112.033 222.928L110.681 221.985L112.625 217.719L113.953 217.135L113.355 213.416L110.059 209.401L113.994 207.924L115.122 203.026L113.27 202.286L113.49 200.444L111.519 197.547L111.939 195.631L108.704 195.293L102.62 198.673L101.893 200.748L98.1752 202.945L94.6059 202.05L92.2399 199.684L92.3481 198.406L90.942 199.082L89.911 198.105L90.9859 194.522L89.2385 191.45L90.462 181.986L89.11 179.687L92.8043 179.515L91.8715 176.963L94.1665 171.65L93.6628 170.031L91.0467 169.598L89.7961 166.583L80.5958 163.109L83.729 157.136L88.4238 156.524L85.3988 156.24L85.4867 152.127L82.8874 150.832L84.7667 147.246L83.2017 145.992L79.1627 148.541L71.7672 147.587L69.8609 148.848L69.5229 146.046L74.647 142.592L74.5388 139.286L72.9705 139.563L69.631 137.627L67.5557 134.717L63.3646 133.314L62.6649 134.098L60.3225 132.432L58.2506 133.263L57.4664 127.416L59.9372 125.827L61.4109 127.419L64.2636 126.405L65.8962 124.188L68.3433 124.137L68.2689 122.109L69.7933 122.342L72.6798 119.946L74.6571 121.484L75.732 124.864L85.9024 124.84L89.742 125.584L90.8778 126.851L91.6213 125.327L90.3978 122.961L94.2881 115.187L97.56 116.201L98.2799 114.193L100.011 114.085L101.498 115.15L100.987 116.221L102.856 115.528L103.681 118.439L105.74 119.115L105.385 116.306L112.172 115.153L112.976 114.109L115.342 114.339L117.597 116.539L119.422 115.43L122.687 116.999L124.715 112.057L124.526 109.292L125.844 109.995L126.253 106.842L135.872 106.521L137.458 102.509L141.774 97.1615L139.475 93.7103L125.232 91.7533L125.479 88.4173L129.44 87.1937L132.78 83.2695L133.669 80.2072L133.949 76.3507L131.228 76.8476L132.918 75.09L131.397 74.6844L130.934 71.8317L132.452 68.2961L132.043 66.2478L135.538 65.3184L136.852 66.7278L138.245 65.3454L139.753 65.893L143.471 59.0046L142.673 56.3681L149.933 53.867L150.846 55.1209L149.467 57.0341L150.318 57.5005L151.454 55.5029L153.411 58.5178H154.506L155.24 55.6888L156.977 55.8848L161.033 59.9408L166.482 60.9108L166.451 60.9886Z" fill="#E8EFF4"></path>
  <circle cx="272.5" cy="40.5" r="3.5" fill="#105C8E"></circle>
</svg>
