<svg width="7" height="11" viewBox="0 0 7 11" fill="none" xmlns="http://www.w3.org/2000/svg">
<path id="Vector" d="M0.290792 0.754202C0.104541 0.941565 -4.28589e-07 1.19502 -4.17042e-07 1.4592C-4.05494e-07 1.72339 0.104541 1.97684 0.290792 2.1642L3.83079 5.7542L0.290792 9.2942C0.104541 9.48156 -5.52942e-08 9.73502 -4.37463e-08 9.9992C-3.21984e-08 10.2634 0.104542 10.5168 0.290792 10.7042C0.383755 10.7979 0.494356 10.8723 0.616216 10.9231C0.738075 10.9739 0.868781 11 1.00079 11C1.1328 11 1.26351 10.9739 1.38537 10.9231C1.50723 10.8723 1.61783 10.7979 1.71079 10.7042L5.95079 6.4642C6.04452 6.37124 6.11891 6.26064 6.16968 6.13878C6.22045 6.01692 6.24659 5.88621 6.24659 5.7542C6.24659 5.62219 6.22045 5.49148 6.16968 5.36962C6.11891 5.24777 6.04452 5.13716 5.95079 5.0442L1.71079 0.754202C1.61783 0.660474 1.50723 0.58608 1.38537 0.535311C1.26351 0.484542 1.1328 0.458403 1.00079 0.458403C0.86878 0.458403 0.738074 0.484542 0.616215 0.535311C0.494356 0.58608 0.383755 0.660474 0.290792 0.754202Z" fill="#105C8E"/>
</svg>
