<svg width="7" height="11" viewBox="0 0 7 11" fill="none" xmlns="http://www.w3.org/2000/svg">
<path d="M5.95481 10.7062C6.14106 10.5189 6.24561 10.2654 6.24561 10.0012C6.24561 9.73706 6.14106 9.48361 5.95481 9.29625L2.41481 5.70625L5.95481 2.16625C6.14106 1.97888 6.24561 1.72543 6.24561 1.46125C6.24561 1.19706 6.14106 0.94361 5.95481 0.756248C5.86185 0.662519 5.75125 0.588125 5.62939 0.537356C5.50753 0.486587 5.37682 0.460449 5.24481 0.460449C5.1128 0.460449 4.9821 0.486587 4.86024 0.537356C4.73838 0.588125 4.62778 0.662519 4.53481 0.756248L0.294814 4.99625C0.201085 5.08921 0.126691 5.19981 0.0759224 5.32167C0.0251537 5.44353 -0.000984773 5.57424 -0.000984773 5.70625C-0.000984773 5.83826 0.0251537 5.96896 0.0759224 6.09082C0.126691 6.21268 0.201085 6.32328 0.294814 6.41625L4.53481 10.7062C4.62778 10.8 4.73838 10.8744 4.86024 10.9251C4.9821 10.9759 5.1128 11.002 5.24481 11.002C5.37682 11.002 5.50753 10.9759 5.62939 10.9251C5.75125 10.8744 5.86185 10.8 5.95481 10.7062Z" fill="#105C8E"/>
</svg>
