<svg width="35" height="32" viewBox="0 0 35 32" fill="none" xmlns="http://www.w3.org/2000/svg">
<path d="M23.4108 15.3154L19.8612 16.3794" stroke="#BF2228" stroke-width="2" stroke-linecap="round" stroke-linejoin="round"/>
<path d="M24.393 18.9185L20.8434 19.9513" stroke="#BF2228" stroke-width="2" stroke-linecap="round" stroke-linejoin="round"/>
<path fill-rule="evenodd" clip-rule="evenodd" d="M29.9286 23.5H25.6428L22.4286 11.7143L22.4103 11.6886C22.2389 11.7036 22.0675 11.7143 21.8928 11.7143C18.6378 11.7143 16 9.07643 16 5.82143C16 4.92893 16.2036 4.08679 16.5593 3.32929L14.9286 1L6.7032 6.75786C5.30606 7.735 4.91606 9.63357 5.81284 11.0832L18.1428 31H33.1428V26.7143C33.1428 24.9389 31.7039 23.5 29.9286 23.5V23.5Z" stroke="#BF2228" stroke-width="2" stroke-linecap="round" stroke-linejoin="round"/>
<path d="M7.42859 29.9287H12.7857" stroke="#BF2228" stroke-width="2" stroke-linecap="round" stroke-linejoin="round"/>
<path d="M4.21423 25.6426H9.57138" stroke="#BF2228" stroke-width="2" stroke-linecap="round" stroke-linejoin="round"/>
<path d="M1 21.3574H6.35714" stroke="#BF2228" stroke-width="2" stroke-linecap="round" stroke-linejoin="round"/>
</svg>
