<svg width="40" height="32" viewBox="0 0 40 32" fill="none" xmlns="http://www.w3.org/2000/svg">
<path d="M14.9345 29.9242C10.427 31.4429 5.0382 30.4042 2.23445 25.5467C-0.923045 20.0779 2.9732 5.77295 2.9732 5.77295C2.9732 5.77295 8.2707 7.18295 12.9345 9.3142" stroke="#BF2228" stroke-width="2" stroke-linecap="round" stroke-linejoin="round"/>
<path d="M24.5654 29.9242C29.0729 31.4429 34.4617 30.4042 37.2654 25.5467C40.4229 20.0779 36.5267 5.77295 36.5267 5.77295C36.5267 5.77295 31.2304 7.18295 26.5654 9.3142" stroke="#BF2228" stroke-width="2" stroke-linecap="round" stroke-linejoin="round"/>
<path fill-rule="evenodd" clip-rule="evenodd" d="M8.5 19.5713C8.5 12.5713 19.75 1 19.75 1C19.75 1 31 12.5713 31 19.5713C31 26.8563 25.2338 31 19.75 31C14.265 31 8.5 26.8563 8.5 19.5713V19.5713Z" stroke="#BF2228" stroke-width="2" stroke-linecap="round" stroke-linejoin="round"/>
</svg>
