<svg width="265" height="31" viewBox="0 0 265 31" fill="none" xmlns="http://www.w3.org/2000/svg">
<path d="M9.69835 30.2659C9.69835 30.2659 5.89826 29.3579 5.69649 29.1561C5.49471 28.9543 5.42745 27.7101 5.69649 27.0039C5.96552 26.2976 9.16029 22.094 9.26118 21.455C9.36206 20.8161 12.725 16.7806 14.3392 15.5363C15.9197 14.2584 19.9216 11.4672 20.6278 9.92026C21.3004 8.40695 24.2934 4.37145 24.8987 4.30419C25.504 4.23694 27.1855 4.37145 27.3873 4.87589C27.589 5.38033 28.5643 8.74324 30.7838 11.03C33.0033 13.3168 37.8459 14.4602 39.1238 16.8815C40.4017 19.3028 44.9753 24.8852 46.2532 26.7684C47.5311 28.6517 45.7488 29.9632 45.547 29.9968C45.3116 30.0305 41.5788 29.9968 41.5788 29.9968L9.49658 30.2659H9.69835Z" fill="white"/>
<path d="M28.3625 30.5359C20.6951 30.5359 13.0613 30.5359 5.39385 30.5359C3.67877 30.5359 1.99731 30.5359 0.282226 30.5023C0.248596 30.5023 0.248596 30.5023 0.214967 30.5023C0.147709 30.5023 0.046822 30.5023 0.0131929 30.4014C-0.0204362 30.3005 0.0131925 30.2333 0.0804508 30.166C0.450371 29.7288 0.820291 29.2917 1.22384 28.8881C1.56013 28.5182 1.89642 28.1147 2.23271 27.7111C2.63626 27.2403 3.00618 26.7695 3.40973 26.2987C3.67877 25.996 3.91417 25.727 4.1832 25.4243C4.62038 24.9199 5.05756 24.4154 5.49474 23.911C5.93192 23.4066 6.40272 22.8685 6.8399 22.3641C7.24345 21.8933 7.647 21.4225 8.05055 20.9517C8.38684 20.5481 8.75676 20.1446 9.09305 19.741C9.22757 19.6065 9.32846 19.472 9.46297 19.3375C10.0347 18.6649 10.64 17.9923 11.2117 17.3197C11.6152 16.8489 12.0188 16.4117 12.4223 15.9409C12.8595 15.4028 13.3303 14.8984 13.7675 14.394C14.1374 13.9568 14.541 13.5196 14.9109 13.0824C15.0454 12.9143 15.1799 12.7461 15.3481 12.6116C15.6844 12.2081 16.0207 11.8382 16.3569 11.4346C16.7605 10.9638 17.164 10.493 17.5676 10.0222C17.9039 9.61864 18.2402 9.24872 18.5765 8.84517C18.9128 8.44162 19.2827 8.03807 19.619 7.63452C19.9553 7.23097 20.3252 6.82742 20.6615 6.42387C21.065 5.95306 21.4686 5.48226 21.8721 5.01145C22.242 4.57427 22.612 4.13709 23.0155 3.69991C23.3182 3.32999 23.6208 2.96007 23.9571 2.62378C24.327 2.1866 24.697 1.74942 25.0669 1.31225C25.3359 1.00958 25.5713 0.706923 25.8067 0.404261C25.9749 0.202486 26.0421 0.202486 26.2103 0.404261C26.4457 0.706923 26.7147 1.00958 26.9501 1.31225C27.5554 2.01846 28.1608 2.7583 28.7997 3.46451C29.136 3.83443 29.4723 4.20435 29.775 4.6079C30.2121 5.14597 30.6829 5.6504 31.0865 6.15484C31.4228 6.55839 31.7591 6.92831 32.0954 7.33186C32.5998 7.90355 33.0706 8.50888 33.575 9.08057C33.9786 9.58501 34.4158 10.0558 34.8193 10.5266C35.0884 10.8629 35.3574 11.1992 35.66 11.5019C36.03 11.9054 36.3663 12.309 36.7362 12.7461C37.0388 13.1161 37.3415 13.4524 37.6442 13.8223C38.0477 14.2595 38.4176 14.7303 38.8212 15.1674C39.2247 15.6383 39.6283 16.1091 39.9982 16.5799C40.3345 16.9834 40.6708 17.3533 41.0071 17.7569C41.2761 18.0595 41.5451 18.3958 41.8142 18.7321C42.2177 19.2366 42.6549 19.7074 43.0585 20.2118C43.462 20.6826 43.8319 21.1198 44.2355 21.5906C44.6727 22.095 45.0762 22.5995 45.5134 23.1039C45.8833 23.5411 46.2532 23.9783 46.6231 24.4154C46.9594 24.819 47.3294 25.2225 47.6656 25.6261C47.9347 25.9624 48.2037 26.2651 48.4727 26.6013C48.8427 27.0049 49.179 27.4084 49.5489 27.8456C49.6161 27.9465 49.717 28.0474 49.7843 28.1147C50.2551 28.6863 50.7259 29.258 51.2303 29.7961C51.3985 29.9979 51.533 30.1997 51.7348 30.3678C51.7684 30.4014 51.802 30.4351 51.8357 30.5023C51.8693 30.6032 51.8357 30.6705 51.7348 30.7041C51.6675 30.7041 51.5666 30.7041 51.4994 30.7041C46.8249 30.7041 42.1841 30.7041 37.5097 30.7041C34.483 30.5359 31.4228 30.5359 28.3625 30.5359ZM45.5806 28.1483C45.5134 28.1147 45.4461 28.1147 45.3789 28.1147C44.9417 28.1147 44.5045 28.1147 44.0673 28.1147C43.7983 28.1147 43.731 28.0474 43.731 27.7784C43.731 27.3748 43.6638 27.0049 43.5965 26.6013C43.4956 26.0296 43.3947 25.458 43.193 24.8863C42.9576 24.18 42.7222 23.4402 42.3859 22.7676C42.1841 22.3304 41.9487 21.9269 41.7133 21.5233C41.1416 20.5145 40.4354 19.6065 39.6283 18.7658C39.0902 18.1604 38.4513 17.656 37.8123 17.1852C37.1734 16.7144 36.5344 16.2772 35.8282 15.9073C35.3574 15.6719 34.9202 15.4028 34.4494 15.2011C33.7768 14.8984 33.1042 14.663 32.4317 14.4276C31.8263 14.2258 31.1874 14.0577 30.5821 13.8895C30.2458 13.7886 29.8758 13.755 29.5396 13.6541C29.1696 13.5532 28.7661 13.5196 28.3962 13.4524C28.1944 13.4187 28.1608 13.4524 28.1608 13.6541C28.1608 13.9232 28.1608 14.1586 28.1608 14.4276C28.1608 14.6966 28.0935 14.7639 27.7908 14.7975C27.4545 14.7975 27.0846 14.7975 26.7483 14.7975C26.3784 14.7975 26.3448 14.7975 26.3448 14.394C26.3448 12.6116 26.3448 10.8293 26.3448 9.04694C26.3448 8.97969 26.3448 8.94606 26.3448 8.8788C26.3448 8.71065 26.412 8.64339 26.6138 8.60977C26.6475 8.60977 26.6811 8.60977 26.7147 8.60977C26.9165 8.60977 26.9501 8.57614 26.9501 8.37436C26.9501 8.20622 26.9501 8.03807 26.9501 7.8363C26.9501 7.60089 27.0174 7.53363 27.2528 7.53363C27.4209 7.53363 27.6227 7.53363 27.7908 7.53363C27.8245 7.53363 27.8917 7.53363 27.9254 7.5C27.959 7.43275 27.8917 7.43275 27.8581 7.36549C27.2528 6.62565 26.6811 5.91944 26.0758 5.1796C25.9749 5.04508 25.9076 5.04508 25.8067 5.1796C25.6049 5.415 25.4032 5.6504 25.2014 5.88581C24.9324 6.18847 24.6633 6.52476 24.4279 6.82742C24.2598 7.0292 24.1253 7.19734 23.9571 7.39912C23.8899 7.46638 23.9235 7.53363 24.0244 7.53363C24.0916 7.53363 24.1253 7.53363 24.1925 7.53363C24.3607 7.53363 24.4952 7.53363 24.6633 7.53363C24.8315 7.53363 24.8987 7.60089 24.9324 7.76904C24.9324 7.8363 24.9324 7.90355 24.9324 7.97081C24.8987 8.10533 24.8987 8.20622 24.8987 8.34073C24.8987 8.54251 24.9324 8.57614 25.1341 8.57614C25.4368 8.60977 25.5041 8.64339 25.5041 8.94606C25.5041 8.97968 25.5041 9.01332 25.5041 9.04694C25.5041 10.7957 25.5041 12.5444 25.5041 14.2931C25.5041 14.3603 25.5041 14.394 25.5041 14.4612C25.5041 14.6966 25.4032 14.7639 25.2014 14.7639C24.966 14.7639 24.697 14.7639 24.4616 14.7639C24.2934 14.7639 24.1253 14.7639 23.9235 14.7639C23.7217 14.7639 23.6881 14.6966 23.6545 14.5285C23.6545 14.4276 23.6545 14.3603 23.6545 14.2595C23.6545 14.0241 23.6545 13.8223 23.6545 13.5869C23.6545 13.4187 23.6208 13.3851 23.4527 13.4187C23.2845 13.4187 23.1164 13.4524 22.9819 13.486C22.612 13.5869 22.242 13.6205 21.8721 13.6878C21.0986 13.8559 20.3252 14.0577 19.5853 14.2931C18.7782 14.5621 17.9711 14.8648 17.1977 15.2347C16.2561 15.6719 15.3481 16.2099 14.5073 16.7816C13.8011 17.2861 13.0949 17.8578 12.4896 18.4631C12.1869 18.7658 11.8843 19.1021 11.5816 19.4383C11.1108 19.9764 10.7073 20.5817 10.3373 21.1871C10.0347 21.6579 9.83289 22.1287 9.59749 22.5995C9.42934 22.9694 9.2612 23.3393 9.12668 23.7092C8.92491 24.2473 8.79039 24.819 8.65587 25.3571C8.55499 25.727 8.48773 26.1305 8.42047 26.5005C8.35321 26.904 8.31958 27.3076 8.25233 27.7111C8.2187 27.9801 8.15144 28.0138 7.91603 28.0138C7.51249 28.0138 7.10893 28.0138 6.70539 28.0138C6.63813 28.0138 6.57087 27.9801 6.50361 28.0474C6.50361 28.1147 6.53724 28.1483 6.57087 28.1483C6.87353 28.3501 7.14256 28.5182 7.44523 28.72C7.84877 28.989 8.25233 29.258 8.62224 29.5271C8.75676 29.628 8.79039 29.5943 8.79039 29.4262C8.79039 29.2244 8.79039 29.0226 8.79039 28.8209C8.79039 28.4173 8.82402 28.3837 9.22757 28.3837C14.4401 28.3837 19.6862 28.3837 24.8987 28.3837C24.9996 28.3837 25.1005 28.3837 25.235 28.3837C25.5041 28.3837 25.5713 28.4509 25.5713 28.72C25.5713 29.0226 25.5713 29.3589 25.5713 29.6616C25.5713 29.8297 25.6049 29.897 25.7731 29.8634C25.9412 29.8634 26.0758 29.8634 26.2439 29.8634C26.4457 29.8634 26.4457 29.8634 26.4457 29.6616C26.4457 29.3926 26.4457 29.1572 26.4457 28.8881C26.4457 28.4173 26.4457 28.4173 26.9165 28.4173C32.2299 28.4173 37.5769 28.4173 42.8903 28.4173C43.3275 28.4173 43.3275 28.4509 43.3275 28.8881C43.3275 29.0899 43.3275 29.2917 43.3275 29.4934C43.3275 29.5943 43.3611 29.628 43.462 29.5607C43.4956 29.5607 43.4956 29.5271 43.5293 29.5271C44.2355 29.0899 44.8744 28.5518 45.5806 28.1483C45.5806 28.2155 45.547 28.2492 45.5806 28.1483ZM27.3873 29.1572C27.2864 29.1572 27.2191 29.1572 27.1183 29.1572H27.0846C26.9165 29.1572 26.8829 29.1908 26.8829 29.3589C26.8829 29.5271 26.8829 29.6952 26.8829 29.8297C26.8829 29.9979 26.9165 30.0315 27.0846 29.9979C27.2864 29.9643 27.4545 29.9643 27.6563 29.9979C27.8245 29.9979 27.8917 29.9643 27.8917 29.7961C27.8917 29.628 27.8917 29.4934 27.8917 29.3253C27.8917 29.1908 27.8581 29.1572 27.7236 29.1572C27.5891 29.1235 27.4882 29.1572 27.3873 29.1572ZM23.8899 29.5271C23.8899 29.628 23.8899 29.6952 23.8899 29.7625C23.8899 29.9306 23.9235 29.9643 24.1253 29.9643C24.2934 29.9643 24.4616 29.9643 24.6297 29.9643C24.8651 29.9979 24.9324 29.9306 24.8987 29.6952C24.8987 29.5607 24.8651 29.4598 24.8651 29.3253C24.8987 29.1572 24.8651 29.1235 24.697 29.1235C24.5288 29.1235 24.3607 29.1235 24.1589 29.1235C23.9571 29.1235 23.8899 29.2244 23.8899 29.3926C23.8899 29.4598 23.8899 29.4934 23.8899 29.5271Z" fill="#C1252B"/>
<path d="M34.6176 27.6773C32.0618 27.6773 29.4724 27.6773 26.9165 27.6773C26.4794 27.6773 26.4457 27.6437 26.4457 27.2065C26.4457 27.1056 26.4457 27.0047 26.4457 26.9038C26.4457 26.7693 26.5466 26.7021 26.6811 26.7357C26.782 26.7357 26.8493 26.803 26.9165 26.8366C27.1519 26.9711 27.421 26.9711 27.6564 27.0047C27.7573 27.0047 27.8582 27.0047 27.8918 26.9038C27.9254 26.803 27.8245 26.7693 27.7573 26.7021C27.5891 26.5676 27.4546 26.433 27.3201 26.2985C27.2192 26.1976 27.2192 26.1304 27.3201 26.0295C27.3874 25.9622 27.421 25.9286 27.4882 25.895C27.7909 25.6932 27.9927 25.4242 28.1608 25.1215C28.1945 25.0879 28.1945 25.0542 28.1945 25.0206C28.2617 24.6171 28.2953 24.1799 28.0263 23.8436C27.9927 23.81 27.9591 23.7763 27.9591 23.7427C27.8918 23.6418 27.9254 23.5409 28.0263 23.4737C28.0936 23.44 28.1945 23.3728 28.2617 23.3392C28.598 23.171 28.8334 22.9356 29.0688 22.6329C29.2706 22.3975 29.3042 22.0949 29.2706 21.8258C29.2706 21.3887 29.1361 20.9851 28.7661 20.7161C28.6653 20.6488 28.598 20.5479 28.4971 20.4471C28.3626 20.3125 28.3626 20.178 28.5644 20.1108C29.1024 19.9426 29.6069 19.7072 30.1113 19.4718C30.5485 19.27 30.952 19.0683 31.322 18.7992C31.8264 18.3957 32.0282 17.8912 31.8937 17.2523C31.86 17.0505 31.7255 16.8487 31.5574 16.7142C31.2211 16.4788 30.8512 16.3779 30.4476 16.3779C29.9095 16.3779 29.3715 16.3107 28.8334 16.3107C28.7661 16.3107 28.6653 16.3107 28.598 16.277C28.2281 16.2098 27.8582 16.3107 27.4882 16.4116C27.2865 16.4788 27.2528 16.6133 27.2865 16.8151C27.3537 17.0169 27.4882 17.185 27.6564 17.3195C28.1945 17.7567 28.7661 17.9249 29.4387 17.7231C29.6069 17.6895 29.7078 17.5886 29.8423 17.4877C29.9095 17.4541 29.9768 17.3868 30.0441 17.3868C30.1786 17.3532 30.3131 17.4204 30.3803 17.5213C30.4476 17.6222 30.4476 17.7567 30.3131 17.8576C30.1449 18.0258 29.9768 18.1603 29.7414 18.2612C29.3715 18.4293 28.9679 18.5638 28.598 18.732C28.1608 18.9337 27.69 19.0683 27.2528 19.2364C27.0847 19.3037 26.9502 19.3709 26.782 19.4382C26.4457 19.5727 26.4121 19.5054 26.4121 19.1691C26.4121 18.3957 26.4121 17.6222 26.4121 16.8824C26.4121 16.5797 26.4121 16.2434 26.4121 15.9407C26.4121 15.6717 26.4794 15.6045 26.7484 15.6045C27.421 15.6045 28.1272 15.6045 28.7998 15.6045C28.867 15.6045 28.9007 15.6045 28.9679 15.6045C29.1697 15.6045 29.2033 15.5708 29.2033 15.3354C29.2033 15.2009 29.2033 15.0328 29.2033 14.8982C29.2033 14.6628 29.2706 14.5956 29.506 14.6292C29.8759 14.7301 30.2458 14.7637 30.6494 14.831C31.2547 14.9655 31.8937 15.1336 32.499 15.3018C32.9362 15.4363 33.407 15.6045 33.8441 15.7726C34.2813 15.9744 34.7521 16.1762 35.1893 16.3779C36.1982 16.8824 37.1062 17.5213 37.9469 18.2612C38.1823 18.4629 38.3841 18.6311 38.5858 18.8329C38.8213 19.0346 39.023 19.27 39.2248 19.5054C39.6956 20.0099 40.0655 20.5479 40.4691 21.086C40.839 21.6241 41.1417 22.1958 41.4107 22.7675C41.747 23.44 42.016 24.1463 42.2514 24.8525C42.4868 25.5923 42.6886 26.3658 42.7895 27.1392C42.7895 27.1729 42.7895 27.2401 42.7895 27.2738C42.7895 27.5092 42.7222 27.5764 42.5205 27.5764C42.4532 27.5764 42.3859 27.5764 42.3523 27.5764C39.7629 27.6773 37.2071 27.6773 34.6176 27.6773Z" fill="#C1252B"/>
<path d="M17.3994 27.6765C14.8436 27.6765 12.2878 27.6765 9.73196 27.6765C9.6647 27.6765 9.56382 27.6765 9.49656 27.6765C9.32841 27.6429 9.26116 27.5756 9.29478 27.4075C9.39567 26.7685 9.53019 26.1296 9.69833 25.5243C9.76559 25.2216 9.86648 24.9526 9.96737 24.6499C10.2028 23.9773 10.4718 23.3047 10.8081 22.6658C11.2789 21.7914 11.817 20.9507 12.4559 20.1772C13.0276 19.5046 13.6329 18.8993 14.3392 18.3276C15.1463 17.655 15.987 17.117 16.895 16.6125C17.7021 16.1754 18.5428 15.8054 19.4171 15.5028C19.7871 15.3683 20.157 15.2674 20.4933 15.1665C20.9977 15.032 21.5358 14.8638 22.0402 14.7966C22.1747 14.7629 22.3093 14.7293 22.4438 14.7293C22.6792 14.6957 22.7801 14.7629 22.7801 14.9983C22.7801 15.1329 22.7801 15.301 22.7801 15.4355C22.7801 15.6373 22.8137 15.6709 23.0155 15.6709C23.3181 15.6709 23.6208 15.6709 23.9235 15.6709C24.3606 15.6709 24.7978 15.6709 25.235 15.6709C25.504 15.6709 25.5713 15.7382 25.5713 16.0072C25.5713 17.0497 25.5713 18.1259 25.5713 19.1684V19.202C25.5713 19.4374 25.4368 19.5046 25.235 19.4374C24.9996 19.3365 24.7305 19.2356 24.4951 19.1347C24.058 18.9666 23.6208 18.7984 23.15 18.6303C22.8473 18.5294 22.5447 18.3949 22.242 18.2604C22.0402 18.1595 21.9057 18.0586 21.7376 17.8904C21.6703 17.7896 21.603 17.7223 21.6703 17.5878C21.7376 17.4869 21.8721 17.4196 22.0066 17.4196C22.1075 17.4196 22.1747 17.4869 22.242 17.5542C22.4774 17.7896 22.7801 17.8568 23.1164 17.8568C23.6544 17.8568 24.1589 17.655 24.5288 17.2515C24.6297 17.1506 24.6969 17.0161 24.7642 16.8816C24.8314 16.6798 24.7642 16.5117 24.5624 16.4444C24.2261 16.3435 23.8562 16.2426 23.4863 16.3099C23.419 16.3099 23.3518 16.3435 23.3181 16.3435C22.7801 16.3099 22.242 16.4108 21.7039 16.4108C21.3676 16.4108 21.0313 16.4444 20.6951 16.6125C20.157 16.8816 20.0225 17.3524 20.157 17.9241C20.2579 18.3276 20.4933 18.6303 20.8632 18.8657C21.3004 19.1684 21.8048 19.4038 22.3093 19.6055C22.7128 19.7737 23.0827 19.9418 23.4863 20.0763C23.5199 20.0763 23.5199 20.0763 23.5535 20.11C23.7217 20.2109 23.7217 20.3117 23.5872 20.4126C23.4863 20.5135 23.3518 20.6144 23.2509 20.7153C22.9818 20.9507 22.8809 21.287 22.8473 21.6233C22.7801 22.1277 22.9146 22.5649 23.3181 22.9348C23.5199 23.103 23.7217 23.2711 23.9907 23.4056C24.2597 23.5401 24.2597 23.6074 24.0916 23.8428C23.8226 24.2464 23.7889 24.7172 23.9571 25.1543C24.0916 25.4906 24.327 25.6924 24.6297 25.8942C24.9323 26.096 24.9323 26.1632 24.6633 26.4322C24.5288 26.5668 24.3943 26.6676 24.2261 26.7685C24.1925 26.8022 24.1589 26.8358 24.1589 26.8694C24.1589 26.9367 24.2261 26.9367 24.2597 26.9367C24.3606 26.9703 24.4615 26.9703 24.5624 26.9367C24.7642 26.9031 24.9996 26.8694 25.1677 26.7685C25.2014 26.7349 25.2686 26.7349 25.3359 26.7349C25.504 26.7013 25.5713 26.7685 25.5713 26.9367C25.5713 27.0712 25.5713 27.2057 25.5713 27.3402C25.5713 27.542 25.4704 27.6093 25.2686 27.6429C25.2014 27.6429 25.1341 27.6429 25.0668 27.6429C22.511 27.6765 19.9552 27.6765 17.3994 27.6765Z" fill="#C1252B"/>
<path d="M26.4459 21.9269C26.4459 21.7252 26.4459 21.557 26.4459 21.3553C26.4459 21.1871 26.5131 21.1198 26.6476 21.0862C27.1184 20.9517 27.6901 21.3889 27.6901 21.8597C27.6901 22.0615 27.6229 22.196 27.4884 22.3305C27.3202 22.4986 27.0848 22.6332 26.8494 22.7004C26.7821 22.734 26.7149 22.734 26.6476 22.7004C26.5131 22.7004 26.4459 22.6332 26.4459 22.4986C26.4122 22.3305 26.4459 22.1287 26.4459 21.9269Z" fill="#C1252B"/>
<path d="M25.5714 21.8934C25.5714 22.0616 25.5714 22.2633 25.5714 22.4315C25.5714 22.6333 25.4705 22.7005 25.2688 22.6669C24.9325 22.5996 24.6298 22.4315 24.4617 22.1288C24.3271 21.8598 24.3608 21.5908 24.5289 21.3554C24.7307 21.12 24.9997 21.0191 25.3024 21.0527C25.4705 21.0863 25.5378 21.1536 25.5378 21.3217C25.5714 21.5235 25.5714 21.7253 25.5714 21.8934Z" fill="#C1252B"/>
<path d="M26.4457 25.0212C26.4457 24.8866 26.4457 24.7185 26.4457 24.584C26.4457 24.4158 26.5465 24.3822 26.7147 24.4495C26.8156 24.4831 26.9165 24.5504 26.9837 24.6176C27.1182 24.7521 27.2191 24.9203 27.1855 25.1221C27.1182 25.3575 26.9837 25.5592 26.7147 25.6265C26.5802 25.6601 26.4793 25.6265 26.4793 25.4583C26.412 25.3238 26.4457 25.1557 26.4457 25.0212Z" fill="#C1252B"/>
<path d="M25.5713 25.0209C25.5713 25.1218 25.5713 25.2563 25.5713 25.3572C25.5713 25.5926 25.4032 25.6598 25.2014 25.5589C24.9997 25.4244 24.8988 25.189 24.9324 24.9536C24.966 24.7182 25.1005 24.5837 25.2687 24.4828C25.4368 24.4155 25.5377 24.4828 25.5713 24.651C25.5713 24.7182 25.5713 24.7855 25.5713 24.8527C25.5713 24.8864 25.5713 24.9536 25.5713 25.0209Z" fill="#C1252B"/>
<path d="M23.789 16.4453C23.9572 16.4453 24.1253 16.5798 24.1253 16.7143C24.1253 16.8489 23.9572 17.017 23.7554 17.017C23.5873 17.017 23.3855 16.8825 23.3855 16.7143C23.4191 16.5798 23.5873 16.4453 23.789 16.4453Z" fill="#C1252B"/>
<path d="M28.2616 16.4453C28.4297 16.4453 28.5979 16.5798 28.6315 16.7143C28.6315 16.8489 28.4634 17.017 28.2952 17.017C28.1271 17.017 27.9253 16.8825 27.9253 16.748C27.9253 16.5798 28.0934 16.4453 28.2616 16.4453Z" fill="#C1252B"/>
<path d="M62.3509 14.2499V14.7879C62.3509 16.5367 62.8553 17.68 64.8394 17.68C65.9828 17.68 67.0926 16.9402 67.0926 15.3596C67.0926 13.6445 66.2182 13.0392 63.7297 12.1649C60.3668 11.0215 58.8198 9.60905 58.8198 6.51518C58.8198 2.88323 61.0393 1 64.604 1C67.9669 1 70.3882 2.44605 70.3882 6.04437V6.58243H66.7563C66.7563 4.83372 66.151 3.79122 64.7049 3.79122C62.9898 3.79122 62.5526 4.86735 62.5526 5.97711C62.5526 7.1205 62.8889 7.82671 64.5031 8.53292L67.4289 9.7772C70.2537 11.0215 70.9936 12.4675 70.9936 14.7207C70.9936 18.6889 68.5723 20.4713 64.5031 20.4713C60.2322 20.4713 58.5508 18.4871 58.5508 15.0233V14.2499H62.3509Z" fill="#105C8E"/>
<path d="M72.9104 1.37012H79.8716C82.9655 1.37012 84.8487 2.98431 84.8487 6.21271C84.8487 8.70126 83.8399 10.3827 81.7212 10.8199V10.8872C84.277 11.2234 84.6806 12.6359 84.7478 16.6041C84.7815 18.5882 84.8824 19.5971 85.5886 19.967V20.1352H81.4858C81.1159 19.5971 81.0486 18.8909 81.015 18.151L80.9141 14.5527C80.8469 13.073 80.2079 12.1987 78.6946 12.1987H76.6769V20.1352H72.9104V1.37012ZM76.6769 9.54199H78.2574C80.0734 9.54199 81.0823 8.76852 81.0823 6.75077C81.0823 5.03569 80.1743 4.16133 78.4592 4.16133H76.6769V9.54199Z" fill="#105C8E"/>
<path d="M87.6736 20.1015V1.37012H91.44V20.1015H87.6736Z" fill="#105C8E"/>
<path d="M100.553 1.37012H107.515C110.609 1.37012 112.492 2.98431 112.492 6.21271C112.492 8.70126 111.483 10.3827 109.364 10.8199V10.8872C111.92 11.2234 112.324 12.6359 112.391 16.6041C112.425 18.5882 112.525 19.5971 113.232 19.967V20.1352H109.129C108.759 19.5971 108.692 18.8909 108.658 18.151L108.557 14.5527C108.49 13.073 107.851 12.1987 106.338 12.1987H104.32V20.1352H100.553V1.37012ZM104.354 9.54199H105.934C107.75 9.54199 108.759 8.76852 108.759 6.75077C108.759 5.03569 107.851 4.16133 106.136 4.16133H104.354V9.54199Z" fill="#105C8E"/>
<path d="M118.781 1.37012H123.455L128.399 20.1015H124.498L123.623 16.1333H118.646L117.772 20.1015H113.837L118.781 1.37012ZM119.285 13.0394H122.951L121.135 4.63214H121.067L119.285 13.0394Z" fill="#105C8E"/>
<path d="M129.811 1.37012H135.427L138.117 14.5864H138.185L140.875 1.37012H146.457V20.1015H142.994V5.13658H142.926L139.597 20.1015H136.671L133.342 5.13658H133.275V20.1015H129.811V1.37012Z" fill="#105C8E"/>
<path d="M152.78 1.37012H157.454L162.398 20.1015H158.463L157.622 16.1333H152.645L151.771 20.1015H147.836L152.78 1.37012ZM153.284 13.0394H156.95L155.134 4.63214H155.1L153.284 13.0394Z" fill="#105C8E"/>
<path d="M171.713 7.69232C171.713 4.96836 171.175 3.79134 169.46 3.79134C167.543 3.79134 167.106 5.7082 167.106 11.0216C167.106 16.6713 167.879 17.7138 169.527 17.7138C170.906 17.7138 171.881 17.0076 171.881 12.9721H175.647C175.647 17.0076 174.638 20.505 169.695 20.505C164.045 20.505 163.305 16.4695 163.305 10.7862C163.305 5.10288 164.012 1.06738 169.695 1.06738C175.109 1.06738 175.479 5.03562 175.479 7.75958H171.713V7.69232Z" fill="#105C8E"/>
<path d="M177.8 1.37012H181.566V8.53312H185.971V1.37012H189.738V20.1015H185.971V11.7615H181.566V20.0679H177.8V1.37012Z" fill="#105C8E"/>
<path d="M196.026 1.37012H200.701L205.644 20.1015H201.71L200.869 16.1333H195.892L195.018 20.1015H191.083L196.026 1.37012ZM196.531 13.0394H200.196L198.381 4.63214H198.313L196.531 13.0394Z" fill="#105C8E"/>
<path d="M211.328 1.37012L215.901 14.1828H215.969V1.37012H219.433V20.1015H215.128L210.521 6.98618H210.454V20.1015H206.99V1.37012H211.328Z" fill="#105C8E"/>
<path d="M222.224 1.37012H228.411C233.658 1.37012 234.599 4.96843 234.599 10.4836C234.599 17.1085 233.187 20.1015 228.176 20.1015H222.224V1.37012ZM225.99 17.3103H227.672C230.295 17.3103 230.833 15.6625 230.833 10.5845C230.833 6.34723 230.496 4.16133 227.604 4.16133H225.99V17.3103Z" fill="#105C8E"/>
<path d="M237.088 1.37012H244.049C247.143 1.37012 249.026 2.98431 249.026 6.21271C249.026 8.70126 248.017 10.3827 245.898 10.8199V10.8872C248.454 11.2234 248.858 12.6359 248.925 16.6041C248.959 18.5882 249.06 19.5971 249.766 19.967V20.1352H245.663C245.293 19.5971 245.226 18.8909 245.192 18.151L245.091 14.5527C245.024 13.073 244.385 12.1987 242.872 12.1987H240.854V20.1352H237.088V1.37012ZM240.854 9.54199H242.435C244.251 9.54199 245.26 8.76852 245.26 6.75077C245.26 5.03569 244.352 4.16133 242.636 4.16133H240.854V9.54199Z" fill="#105C8E"/>
<path d="M255.315 1.37012H259.989L264.933 20.1015H260.998L260.157 16.1333H255.18L254.306 20.1015H250.371L255.315 1.37012ZM255.819 13.0394H259.485L257.669 4.63214H257.602L255.819 13.0394Z" fill="#105C8E"/>
<path d="M61.8801 30.4585H60.6694V24.6406H61.8801V30.4585Z" fill="#1E1E1E" fill-opacity="0.6"/>
<path d="M63.0234 24.6406H64.3013L66.6218 28.6761V24.6406H67.7651V30.4585H66.5545L64.2005 26.3221V30.4585H63.0571V24.6406H63.0234Z" fill="#1E1E1E" fill-opacity="0.6"/>
<path d="M69.7493 28.6759C69.783 28.945 69.8502 29.1467 69.9847 29.2813C70.1865 29.5167 70.5228 29.6512 71.0273 29.6512C71.3299 29.6512 71.5653 29.6175 71.7335 29.5503C72.0698 29.4158 72.2379 29.214 72.2379 28.8777C72.2379 28.6759 72.137 28.5414 71.9689 28.4405C71.8007 28.3396 71.5317 28.2388 71.1618 28.1715L70.5228 28.037C69.9175 27.9025 69.4803 27.7679 69.2449 27.5998C68.8414 27.3308 68.6732 26.9272 68.6732 26.3555C68.6732 25.8511 68.875 25.4139 69.2449 25.044C69.6148 24.7077 70.1865 24.5396 70.9264 24.5396C71.5317 24.5396 72.0698 24.7077 72.5069 25.0104C72.9441 25.3467 73.1795 25.8175 73.1795 26.4228H72.0361C72.0025 26.0865 71.868 25.8175 71.5653 25.6829C71.3635 25.5821 71.1281 25.5484 70.8255 25.5484C70.4892 25.5484 70.2538 25.6157 70.052 25.7502C69.8502 25.8847 69.7493 26.0529 69.7493 26.2883C69.7493 26.49 69.8502 26.6582 70.0184 26.7591C70.1529 26.8263 70.3883 26.8936 70.7918 26.9945L71.8007 27.2299C72.2379 27.3308 72.5742 27.4653 72.8096 27.6671C73.1459 27.9361 73.314 28.3396 73.314 28.8441C73.314 29.3821 73.1123 29.8193 72.7087 30.1556C72.3052 30.4919 71.7335 30.6937 70.96 30.6937C70.1865 30.6937 69.5812 30.5255 69.144 30.1892C68.7068 29.853 68.4714 29.3821 68.4714 28.7768H69.7493V28.6759Z" fill="#1E1E1E" fill-opacity="0.6"/>
<path d="M78.4593 24.6406V25.6831H76.7106V30.4585H75.4999V25.6831H73.7512V24.6406H78.4593Z" fill="#1E1E1E" fill-opacity="0.6"/>
<path d="M80.2751 30.4585H79.0645V24.6406H80.2751V30.4585Z" fill="#1E1E1E" fill-opacity="0.6"/>
<path d="M85.6224 24.6406V25.6831H83.8737V30.4585H82.663V25.6831H80.9143V24.6406H85.6224Z" fill="#1E1E1E" fill-opacity="0.6"/>
<path d="M86.3285 24.6406H87.5728V28.2053C87.5728 28.6089 87.6064 28.9115 87.7073 29.0797C87.8418 29.416 88.1781 29.5841 88.6489 29.5841C89.1533 29.5841 89.456 29.416 89.5905 29.0797C89.6914 28.9115 89.725 28.6089 89.725 28.2053V24.6406H90.9693V28.2053C90.9693 28.8106 90.8684 29.3151 90.6666 29.6514C90.2967 30.2903 89.6241 30.593 88.6153 30.593C87.6064 30.593 86.9338 30.2903 86.5639 29.6514C86.3621 29.3151 86.2612 28.8106 86.2612 28.2053V24.6406H86.3285Z" fill="#1E1E1E" fill-opacity="0.6"/>
<path d="M96.3836 24.6406V25.6831H94.6349V30.4585H93.4243V25.6831H91.6755V24.6406H96.3836Z" fill="#1E1E1E" fill-opacity="0.6"/>
<path d="M101.394 25.6831H98.334V26.8938H101.159V27.9026H98.334V29.3823H101.562V30.4248H97.157V24.6406H101.428V25.6831H101.394Z" fill="#1E1E1E" fill-opacity="0.6"/>
<path d="M109.196 29.9543C108.759 30.3914 108.12 30.6268 107.279 30.6268C106.439 30.6268 105.8 30.3914 105.363 29.9543C104.757 29.4162 104.488 28.6091 104.488 27.5666C104.488 26.4905 104.791 25.717 105.363 25.1789C105.8 24.7418 106.439 24.5063 107.279 24.5063C108.12 24.5063 108.759 24.7418 109.196 25.1789C109.768 25.717 110.071 26.5241 110.071 27.5666C110.071 28.5755 109.802 29.3826 109.196 29.9543ZM108.457 29.0463C108.726 28.6764 108.894 28.1719 108.894 27.533C108.894 26.894 108.759 26.3896 108.457 26.0197C108.154 25.6497 107.784 25.4816 107.313 25.4816C106.842 25.4816 106.439 25.6497 106.17 26.0197C105.901 26.3896 105.733 26.894 105.733 27.533C105.733 28.1719 105.867 28.6764 106.17 29.0463C106.472 29.4162 106.842 29.5843 107.313 29.5843C107.784 29.5843 108.154 29.4162 108.457 29.0463Z" fill="#1E1E1E" fill-opacity="0.6"/>
<path d="M111.012 24.6406H115.149V25.6495H112.223V26.9947H114.812V28.0035H112.223V30.4248H111.012V24.6406Z" fill="#1E1E1E" fill-opacity="0.6"/>
<path d="M118.175 30.4585V24.6406H119.386V26.8601H121.639V24.6406H122.85V30.4585H121.639V27.869H119.386V30.4585H118.175Z" fill="#1E1E1E" fill-opacity="0.6"/>
<path d="M125.103 30.4585H123.892V24.6406H125.103V30.4585Z" fill="#1E1E1E" fill-opacity="0.6"/>
<path d="M130.147 26.4568C130.046 26.0533 129.845 25.7843 129.475 25.6161C129.273 25.5152 129.037 25.4816 128.802 25.4816C128.331 25.4816 127.961 25.6497 127.659 26.0197C127.356 26.3896 127.222 26.894 127.222 27.6002C127.222 28.3064 127.39 28.8109 127.726 29.1135C128.062 29.4162 128.432 29.5507 128.836 29.5507C129.239 29.5507 129.576 29.4498 129.845 29.2144C130.114 28.979 130.248 28.6764 130.315 28.3064H128.97V27.3312H131.392V30.4587H130.551L130.416 29.7189C130.181 29.9879 129.979 30.1897 129.777 30.2906C129.441 30.4923 129.071 30.5932 128.6 30.5932C127.827 30.5932 127.188 30.3242 126.717 29.7861C126.213 29.2481 125.944 28.5082 125.944 27.6002C125.944 26.6586 126.213 25.9188 126.717 25.3471C127.222 24.7754 127.928 24.5063 128.768 24.5063C129.508 24.5063 130.114 24.7081 130.551 25.078C130.988 25.448 131.257 25.9188 131.324 26.4905H130.147V26.4568Z" fill="#1E1E1E" fill-opacity="0.6"/>
<path d="M132.535 30.4585V24.6406H133.746V26.8601H135.999V24.6406H137.209V30.4585H135.999V27.869H133.746V30.4585H132.535Z" fill="#1E1E1E" fill-opacity="0.6"/>
<path d="M142.657 25.6831H139.597V26.8938H142.422V27.9026H139.597V29.3823H142.825V30.4248H138.42V24.6406H142.657V25.6831Z" fill="#1E1E1E" fill-opacity="0.6"/>
<path d="M147.466 24.8088C147.668 24.9097 147.87 25.0442 148.004 25.2123C148.139 25.3468 148.24 25.515 148.307 25.7168C148.374 25.8849 148.408 26.0867 148.408 26.3221C148.408 26.5911 148.341 26.8601 148.206 27.1292C148.072 27.3982 147.836 27.6 147.5 27.7009C147.769 27.8018 147.971 27.9699 148.072 28.1717C148.173 28.3735 148.24 28.6761 148.24 29.0797V29.4832C148.24 29.7522 148.24 29.9204 148.273 30.0213C148.307 30.1558 148.374 30.2903 148.509 30.3576V30.4921H147.164C147.13 30.3576 147.096 30.2567 147.096 30.1894C147.063 30.0213 147.063 29.8531 147.029 29.685V29.1469C147.029 28.777 146.962 28.5416 146.827 28.4071C146.693 28.2726 146.457 28.2053 146.121 28.2053H144.944V30.4921H143.767V24.6406H146.558C146.928 24.6406 147.265 24.7079 147.466 24.8088ZM144.944 25.6495V27.2301H146.256C146.525 27.2301 146.693 27.1964 146.827 27.1292C147.063 27.0283 147.164 26.7929 147.164 26.4902C147.164 26.1539 147.063 25.8849 146.827 25.784C146.693 25.7168 146.525 25.6831 146.256 25.6831H144.944V25.6495Z" fill="#1E1E1E" fill-opacity="0.6"/>
<path d="M156.109 25.6831H153.049V26.8938H155.873V27.9026H153.049V29.3823H156.277V30.4248H151.872V24.6406H156.109V25.6831Z" fill="#1E1E1E" fill-opacity="0.6"/>
<path d="M160.582 24.7751C160.985 24.9097 161.321 25.1451 161.557 25.515C161.759 25.8176 161.893 26.1203 161.96 26.4566C162.028 26.7929 162.061 27.1292 162.061 27.4318C162.061 28.2053 161.893 28.8443 161.59 29.3823C161.153 30.0885 160.514 30.4585 159.64 30.4585H157.151V24.6406H159.64C160.043 24.6406 160.346 24.7079 160.582 24.7751ZM158.362 25.6495V29.4496H159.472C160.043 29.4496 160.447 29.1806 160.682 28.6089C160.817 28.3062 160.884 27.9363 160.884 27.4991C160.884 26.8938 160.783 26.4566 160.615 26.1539C160.413 25.8513 160.077 25.6831 159.505 25.6831H158.362V25.6495Z" fill="#1E1E1E" fill-opacity="0.6"/>
<path d="M163.037 24.6406H164.281V28.2053C164.281 28.6089 164.314 28.9115 164.415 29.0797C164.55 29.416 164.886 29.5841 165.357 29.5841C165.861 29.5841 166.164 29.416 166.299 29.0797C166.399 28.9115 166.433 28.6089 166.433 28.2053V24.6406H167.677V28.2053C167.677 28.8106 167.576 29.3151 167.375 29.6514C167.005 30.2903 166.332 30.593 165.323 30.593C164.314 30.593 163.642 30.2903 163.272 29.6514C163.07 29.3151 162.969 28.8106 162.969 28.2053V24.6406H163.037Z" fill="#1E1E1E" fill-opacity="0.6"/>
<path d="M169.392 25.2458C169.863 24.775 170.468 24.5396 171.175 24.5396C172.15 24.5396 172.856 24.8758 173.293 25.5148C173.529 25.8847 173.663 26.221 173.697 26.5909H172.486C172.419 26.3219 172.318 26.0865 172.184 25.952C171.982 25.6829 171.645 25.5821 171.208 25.5821C170.771 25.5821 170.435 25.7502 170.199 26.1201C169.964 26.49 169.829 26.9945 169.829 27.6334C169.829 28.2724 169.964 28.7768 170.233 29.1131C170.502 29.4494 170.838 29.5839 171.242 29.5839C171.645 29.5839 171.982 29.4494 172.184 29.1804C172.318 29.0459 172.419 28.8105 172.486 28.5078H173.697C173.596 29.1467 173.327 29.6512 172.89 30.0547C172.453 30.4583 171.914 30.66 171.242 30.66C170.401 30.66 169.762 30.391 169.291 29.853C168.821 29.3149 168.585 28.575 168.585 27.6334C168.585 26.5909 168.854 25.8175 169.392 25.2458Z" fill="#1E1E1E" fill-opacity="0.6"/>
<path d="M176.354 24.6406H177.732L179.784 30.4585H178.472L178.102 29.2478H175.95L175.546 30.4585H174.269L176.354 24.6406ZM176.253 28.2726H177.732L176.993 25.9858L176.253 28.2726Z" fill="#1E1E1E" fill-opacity="0.6"/>
<path d="M184.122 24.6406V25.6831H182.373V30.4585H181.163V25.6831H179.414V24.6406H184.122Z" fill="#1E1E1E" fill-opacity="0.6"/>
<path d="M185.938 30.4585H184.727V24.6406H185.938V30.4585Z" fill="#1E1E1E" fill-opacity="0.6"/>
<path d="M191.554 29.9543C191.117 30.3914 190.478 30.6268 189.637 30.6268C188.796 30.6268 188.157 30.3914 187.72 29.9543C187.115 29.4162 186.846 28.6091 186.846 27.5666C186.846 26.4905 187.149 25.717 187.72 25.1789C188.157 24.7418 188.796 24.5063 189.637 24.5063C190.478 24.5063 191.117 24.7418 191.554 25.1789C192.126 25.717 192.428 26.5241 192.428 27.5666C192.428 28.5755 192.159 29.3826 191.554 29.9543ZM190.814 29.0463C191.083 28.6764 191.251 28.1719 191.251 27.533C191.251 26.894 191.117 26.3896 190.814 26.0197C190.512 25.6497 190.142 25.4816 189.671 25.4816C189.2 25.4816 188.796 25.6497 188.527 26.0197C188.258 26.3896 188.09 26.894 188.09 27.533C188.09 28.1719 188.225 28.6764 188.527 29.0463C188.83 29.4162 189.2 29.5843 189.671 29.5843C190.142 29.5843 190.512 29.4162 190.814 29.0463Z" fill="#1E1E1E" fill-opacity="0.6"/>
<path d="M193.336 24.6406H194.614L196.935 28.6761V24.6406H198.078V30.4585H196.867L194.513 26.3221V30.4585H193.37V24.6406H193.336Z" fill="#1E1E1E" fill-opacity="0.6"/>
<path d="M202.786 24.6406H204.165L206.216 30.4585H204.905L204.535 29.2478H202.383L201.979 30.4585H200.701L202.786 24.6406ZM202.719 28.2726H204.199L203.459 25.9858L202.719 28.2726Z" fill="#1E1E1E" fill-opacity="0.6"/>
<path d="M206.956 24.6406H208.234L210.554 28.6761V24.6406H211.698V30.4585H210.487L208.133 26.3221V30.4585H206.99V24.6406H206.956Z" fill="#1E1E1E" fill-opacity="0.6"/>
<path d="M216.204 24.7751C216.608 24.9097 216.944 25.1451 217.179 25.515C217.381 25.8176 217.516 26.1203 217.583 26.4566C217.65 26.7929 217.684 27.1292 217.684 27.4318C217.684 28.2053 217.516 28.8443 217.213 29.3823C216.776 30.0885 216.137 30.4585 215.262 30.4585H212.774V24.6406H215.262C215.666 24.6406 215.969 24.7079 216.204 24.7751ZM213.985 25.6495V29.4496H215.094C215.666 29.4496 216.07 29.1806 216.305 28.6089C216.439 28.3062 216.507 27.9363 216.507 27.4991C216.507 26.8938 216.406 26.4566 216.238 26.1539C216.036 25.8513 215.7 25.6831 215.128 25.6831H213.985V25.6495Z" fill="#1E1E1E" fill-opacity="0.6"/>
<path d="M224.578 24.8088C224.779 24.9097 224.981 25.0442 225.116 25.2123C225.25 25.3468 225.351 25.515 225.418 25.7168C225.486 25.8849 225.519 26.0867 225.519 26.3221C225.519 26.5911 225.452 26.8601 225.317 27.1292C225.183 27.3982 224.948 27.6 224.611 27.7009C224.88 27.8018 225.082 27.9699 225.183 28.1717C225.284 28.3735 225.351 28.6761 225.351 29.0797V29.4832C225.351 29.7522 225.351 29.9204 225.385 30.0213C225.418 30.1558 225.486 30.2903 225.62 30.3576V30.4921H224.275C224.241 30.3576 224.208 30.2567 224.208 30.1894C224.174 30.0213 224.174 29.8531 224.14 29.685V29.1469C224.14 28.777 224.073 28.5416 223.939 28.4071C223.804 28.2726 223.569 28.2053 223.232 28.2053H222.055V30.4921H220.878V24.6406H223.67C224.073 24.6406 224.376 24.7079 224.578 24.8088ZM222.089 25.6495V27.2301H223.401C223.67 27.2301 223.838 27.1964 223.972 27.1292C224.208 27.0283 224.309 26.7929 224.309 26.4902C224.309 26.1539 224.208 25.8849 223.972 25.784C223.838 25.7168 223.67 25.6831 223.401 25.6831H222.089V25.6495Z" fill="#1E1E1E" fill-opacity="0.6"/>
<path d="M231.001 25.6831H227.941V26.8938H230.765V27.9026H227.941V29.3823H231.169V30.4248H226.73V24.6406H231.001V25.6831Z" fill="#1E1E1E" fill-opacity="0.6"/>
<path d="M232.951 28.6759C232.985 28.945 233.052 29.1467 233.187 29.2813C233.389 29.5167 233.725 29.6512 234.229 29.6512C234.532 29.6512 234.767 29.6175 234.936 29.5503C235.272 29.4158 235.44 29.214 235.44 28.8777C235.44 28.6759 235.339 28.5414 235.171 28.4405C235.003 28.3396 234.734 28.2388 234.364 28.1715L233.725 28.037C233.12 27.9025 232.682 27.7679 232.447 27.5998C232.043 27.3308 231.875 26.9272 231.875 26.3555C231.875 25.8511 232.077 25.4139 232.447 25.044C232.817 24.6741 233.389 24.5396 234.128 24.5396C234.734 24.5396 235.272 24.7077 235.709 25.0104C236.146 25.3467 236.382 25.8175 236.382 26.4228H235.205C235.171 26.0865 235.036 25.8175 234.734 25.6829C234.532 25.5821 234.297 25.5484 233.994 25.5484C233.658 25.5484 233.422 25.6157 233.22 25.7502C233.019 25.8847 232.918 26.0529 232.918 26.2883C232.918 26.49 233.019 26.6582 233.187 26.7591C233.321 26.8263 233.557 26.8936 233.96 26.9945L234.969 27.2299C235.406 27.3308 235.743 27.4653 235.978 27.6671C236.314 27.9361 236.482 28.3396 236.482 28.8441C236.482 29.3821 236.281 29.8193 235.877 30.1556C235.474 30.4919 234.902 30.6937 234.128 30.6937C233.355 30.6937 232.75 30.5255 232.312 30.1892C231.875 29.853 231.64 29.3821 231.64 28.7768H232.951V28.6759Z" fill="#1E1E1E" fill-opacity="0.6"/>
<path d="M241.762 25.6831H238.702V26.8938H241.527V27.9026H238.702V29.3823H241.93V30.4248H237.491V24.6406H241.762V25.6831Z" fill="#1E1E1E" fill-opacity="0.6"/>
<path d="M244.52 24.6406H245.899L247.95 30.4585H246.638L246.235 29.2478H244.083L243.679 30.4585H242.401L244.52 24.6406ZM244.419 28.2726H245.899L245.159 25.9858L244.419 28.2726Z" fill="#1E1E1E" fill-opacity="0.6"/>
<path d="M252.389 24.8088C252.591 24.9097 252.793 25.0442 252.927 25.2123C253.062 25.3468 253.163 25.515 253.23 25.7168C253.297 25.8849 253.331 26.0867 253.331 26.3221C253.331 26.5911 253.264 26.8601 253.129 27.1292C252.994 27.3982 252.759 27.6 252.423 27.7009C252.692 27.8018 252.894 27.9699 252.994 28.1717C253.095 28.3735 253.163 28.6761 253.163 29.0797V29.4832C253.163 29.7522 253.163 29.9204 253.196 30.0213C253.23 30.1558 253.297 30.2903 253.432 30.3576V30.4921H252.086C252.053 30.3576 252.019 30.2567 252.019 30.1894C251.986 30.0213 251.986 29.8531 251.952 29.685V29.1469C251.952 28.777 251.885 28.5416 251.75 28.4071C251.616 28.2726 251.38 28.2053 251.044 28.2053H249.867V30.4921H248.69V24.6406H251.481C251.885 24.6406 252.187 24.7079 252.389 24.8088ZM249.901 25.6495V27.2301H251.212C251.481 27.2301 251.649 27.1964 251.784 27.1292C252.019 27.0283 252.12 26.7929 252.12 26.4902C252.12 26.1539 252.019 25.8849 251.784 25.784C251.649 25.7168 251.481 25.6831 251.212 25.6831H249.901V25.6495Z" fill="#1E1E1E" fill-opacity="0.6"/>
<path d="M255.046 25.2458C255.516 24.775 256.122 24.5396 256.828 24.5396C257.803 24.5396 258.509 24.8758 258.947 25.5148C259.182 25.8847 259.317 26.221 259.35 26.5909H258.14C258.072 26.3219 257.971 26.0865 257.837 25.952C257.635 25.6829 257.299 25.5821 256.862 25.5821C256.424 25.5821 256.088 25.7502 255.853 26.1201C255.617 26.49 255.483 26.9945 255.483 27.6334C255.483 28.2724 255.617 28.7768 255.886 29.1131C256.155 29.4494 256.492 29.5839 256.895 29.5839C257.299 29.5839 257.635 29.4494 257.837 29.1804C257.971 29.0459 258.072 28.8105 258.14 28.5078H259.35C259.249 29.1467 258.98 29.6512 258.543 30.0547C258.106 30.4583 257.568 30.66 256.895 30.66C256.055 30.66 255.416 30.391 254.945 29.853C254.474 29.3149 254.239 28.575 254.239 27.6334C254.239 26.5909 254.508 25.8175 255.046 25.2458Z" fill="#1E1E1E" fill-opacity="0.6"/>
<path d="M260.325 30.4585V24.6406H261.536V26.8601H263.789V24.6406H265V30.4585H263.789V27.869H261.536V30.4585H260.325Z" fill="#1E1E1E" fill-opacity="0.6"/>
</svg>
